<?xml version="1.0" encoding="UTF-8"?><svg id="a" xmlns="http://www.w3.org/2000/svg" viewBox="0 0 800 600.7"><path d="M250.79,366.48c-10.48-1.18-20.5-1.52-30.15-3.55-27.61-5.79-49.86-19.92-65.35-44-5.78-8.98-5.6-17.5,.24-26.39,14.89-22.68,36.11-36.32,61.96-42.75,10.45-2.6,21.42-3.14,32-4.59-2.87-3.05-6.52-6.67-9.88-10.54-19.98-23.07-30.75-49.5-28.68-80.4,.34-5.06,1.57-10.09,2.73-15.05,1.43-6.12,5.49-10.02,11.42-11.93,10.9-3.51,22.08-4.41,33.44-3.47,30.05,2.49,54.79,15.78,75.52,37.2,.17,.18,.44,.28,1.27,.8,0-2.34-.03-4.34,0-6.33,.47-31.95,11.59-59.47,34.67-81.73,5.04-4.86,11.16-8.67,17.03-12.6,7.14-4.78,14.28-3.84,21.37,.64,16.64,10.51,29.2,24.68,37.98,42.19,8.25,16.46,12.3,33.95,12.03,52.39-.02,1.66,0,3.31,0,5.05,6.11-5.19,11.71-10.5,17.86-15.06,20.32-15.06,43.1-23.28,68.54-22.7,7.64,.18,15.3,1.9,22.83,3.51,7.24,1.55,11.26,6.67,13.01,13.77,5,20.26,2.39,39.85-5.25,58.95-6.53,16.31-16.29,30.49-29.08,42.55-1.12,1.05-2.49,1.83-3.75,2.73,.25,.25,.51,.5,.76,.75,7,.43,14.06,.39,20.98,1.37,31.13,4.42,56.47,18.5,74.18,45.15,6.04,9.09,5.66,17.79-.12,26.77-14.87,23.09-36.37,36.69-62.59,42.92-10.46,2.49-21.38,3.06-31.82,4.47,3.7,4.04,8.13,8.45,12.07,13.27,18.35,22.45,28.56,47.82,26.91,77.24-.26,4.56-1.28,9.07-1.96,13.6-1.57,10.53-8.22,15.39-18.28,16.94-35.49,5.47-66.33-4.73-93.47-27.5-3.52-2.95-6.78-6.2-10.57-9.69-.31,4.81-.48,9.29-.91,13.75-2.87,29.59-14.89,54.68-37.32,74.37-4.77,4.19-10.46,7.39-15.92,10.71-4.85,2.95-9.93,2.54-15.01,.08-14.61-7.06-25.68-18.04-34.66-31.28-13.04-19.22-19.12-40.62-19.46-63.74-.02-1.13,0-2.26,0-4.28-2.15,2.03-3.72,3.5-5.27,4.98-18.83,18-40.9,29.56-66.83,33.19-12.05,1.69-24.09,1.12-36.03-1.37-7.6-1.58-12.19-6.06-13.99-13.62-5.95-24.89-1.8-48.42,9.61-70.93,6.47-12.77,15.1-23.96,25.48-33.8,.75-.71,1.61-1.32,2.46-2.02ZM396.97,85.72c-19.5,16.81-31.53,36.97-33.2,62.54-1.53,23.4,3.65,45.88,9.81,68.21,2.68,9.71,5.41,19.42,7.69,29.23,1.13,4.89-.93,8.39-4.76,10.13-3.55,1.61-7.76,.4-10.75-3.39-1.86-2.36-3.41-4.97-5.1-7.47-11.78-17.35-23.05-35.09-35.5-51.95-12.53-16.97-28.57-29.99-48.84-37.04-12.26-4.26-24.88-6.04-38.12-4.94-.11,1.5-.3,2.79-.3,4.08,.08,21.18,6.3,40.29,19.49,56.95,11.49,14.52,25.97,25.6,41.63,35.15,13.32,8.12,26.99,15.66,40.44,23.57,2.24,1.31,4.38,2.96,6.17,4.83,2.68,2.79,3.25,6.27,1.59,9.83-1.68,3.6-4.78,5.19-8.64,4.96-2.34-.14-4.67-.65-6.96-1.18-23.84-5.52-47.32-12.71-71.87-14.81-15.49-1.33-30.7-.37-45.35,5.21-14.38,5.47-26.42,14.25-36.3,26.19,.47,.69,.77,1.27,1.19,1.74,20.12,22.2,45.15,32.03,75,29.88,16.16-1.17,31.88-4.63,47.48-8.78,11.64-3.09,23.27-6.24,35-8.95,5.11-1.18,9.26,1.18,10.87,4.99,1.71,4.05,.29,8.39-4.21,11.57-3.31,2.34-6.86,4.35-10.37,6.39-19.03,11.08-38.2,21.93-55.23,36.1-18.33,15.25-32.03,33.49-37.53,57.13-1.97,8.46-2.9,17-2.04,25.95,11.29,.61,22-.71,32.54-3.7,23.98-6.8,42.08-21.88,56.02-41.78,12.26-17.49,23.18-35.92,34.75-53.89,1.55-2.41,3.29-4.76,5.28-6.82,2.67-2.76,6.13-2.86,9.51-1.53,3.43,1.35,4.92,4.24,4.89,7.81-.02,1.95-.25,3.94-.73,5.82-4.62,17.87-9.82,35.61-13.84,53.61-4.01,17.92-5.17,36.13-.54,54.24,4.94,19.33,15.51,35.02,31.29,48.12,4.52-4.87,9.19-9.31,13.19-14.29,19.13-23.84,23.17-51.28,17.31-80.32-3.8-18.84-9.35-37.32-14.02-55.98-.92-3.66-1.73-7.41-1.99-11.15-.26-3.73,1.81-6.63,5.27-8.02,3.43-1.38,6.88-.81,9.39,2.02,2.34,2.63,4.42,5.53,6.34,8.48,11.01,16.93,21.39,34.3,33.02,50.79,13.75,19.49,31.53,34.37,54.61,42.03,11.31,3.75,22.9,5.21,35.54,4.33-.35-5.92-.31-11.57-1.07-17.1-3.59-25.86-16.89-46.21-36.31-62.98-15.86-13.7-33.69-24.49-51.73-34.99-5.99-3.49-11.97-7.06-17.61-11.08-3.83-2.73-4.7-7.17-3.11-10.85,1.58-3.67,5.85-5.97,10.51-5.09,5.39,1.02,10.75,2.33,16.04,3.8,21.96,6.11,43.8,12.75,66.77,14.1,20.48,1.2,39.68-2.74,57-14.18,7.24-4.78,13.75-10.4,19.11-17.19-.35-.61-.49-.99-.74-1.28-17.35-19.94-39.43-29.82-65.66-30.82-14.14-.54-28.05,1.43-41.79,4.42-16.9,3.67-33.69,7.83-50.55,11.65-4.86,1.1-8.7-.62-10.44-4.18-1.83-3.72-.96-8.36,2.58-11.41,2.36-2.04,5.07-3.72,7.74-5.37,18.54-11.39,37.73-21.83,55.52-34.29,23.31-16.33,38.95-38.4,42.73-67.47,.7-5.36,.54-10.84,.78-16.17-11.58-1.36-26.23,.38-37.8,4.19-21.98,7.24-38.51,21.83-51.76,40.04-12.17,16.73-23.08,34.37-34.63,51.56-1.81,2.69-3.69,5.55-6.18,7.53-5.15,4.09-11.56,1.65-13.07-4.75-.41-1.71-.41-3.71,.03-5.4,2.73-10.39,5.64-20.72,8.48-31.08,6.39-23.24,11.66-46.66,8.37-71-3.09-22.93-14.68-41.15-32.31-56.53Z"/><path d="M348.58,304.73c-.07-26.73,20.93-48.09,47.34-48.15,27.53-.06,48.99,20.8,49.07,47.7,.08,27.17-21.11,48.47-48.29,48.55-27.15,.07-48.04-20.81-48.11-48.09Zm71.25-.34c-.05-12.63-10.54-22.99-23.19-22.9-12.71,.08-22.89,10.38-22.9,23.16-.01,12.85,10.14,23.05,22.94,23.02,12.95-.02,23.2-10.34,23.15-23.28Z"/></svg>